<svg xmlns="http://www.w3.org/2000/svg" width="97" height="83" fill="none"><path fill="#9BB537" d="M19 33h60v46H19V33Z"/><path fill="#9BB537" d="M43 29.5C43 41.374 33.374 51 21.5 51S0 41.374 0 29.5 9.626 8 21.5 8 43 17.626 43 29.5Z"/><path fill="#9BB537" d="M70 21.5C70 33.374 60.374 43 48.5 43S27 33.374 27 21.5 36.626 0 48.5 0 70 9.626 70 21.5Z"/><path fill="#9BB537" d="M97 29.5C97 41.374 87.374 51 75.5 51S54 41.374 54 29.5 63.626 8 75.5 8 97 17.626 97 29.5Z"/><path fill="#F8F8F8" d="M19 76h60v5.28c0 .95-.84 1.72-1.875 1.72h-56.25C19.84 83 19 82.23 19 81.28V76Zm18-49.13c0-1.585 1.12-2.87 2.5-2.87s2.5 1.285 2.5 2.87v13.26c0 1.585-1.12 2.87-2.5 2.87S37 41.715 37 40.13V26.87Zm8 0c0-1.585 1.567-2.87 3.5-2.87s3.5 1.285 3.5 2.87v13.26c0 1.585-1.567 2.87-3.5 2.87S45 41.715 45 40.13V26.87Zm10 0c0-1.585 1.12-2.87 2.5-2.87s2.5 1.285 2.5 2.87v13.26c0 1.585-1.12 2.87-2.5 2.87S55 41.715 55 40.13V26.87Z"/><path fill="#050505" fill-rule="evenodd" d="M73.103 8.121a22.015 22.015 0 0 1 2.278-.117c9.633 0 17.795 6.257 20.59 14.903-.75.078-1.509.118-2.278.118-9.633 0-17.795-6.258-20.59-14.904Z" clip-rule="evenodd"/></svg>