<svg aria-hidden="true" style="width:0;height:0;position:absolute;overflow:hidden" xmlns="http://www.w3.org/2000/svg"><defs><symbol id="icon-menu" viewBox="0 0 31 32"><path stroke-linejoin="round" stroke-linecap="round" stroke-width="1.939" d="M27.151 13.414H3.878m23.273-5.172H3.878m23.273 10.344H3.878m23.273 5.172H3.878"/></symbol><symbol id="icon-shopping-cart" viewBox="0 0 32 32"><path stroke-linejoin="round" stroke-linecap="round" stroke-width="2.667" d="M12 29.333a1.333 1.333 0 0 0 0-2.666 1.333 1.333 0 0 0 0 2.666zm14.667 0a1.333 1.333 0 0 0 0-2.666 1.333 1.333 0 0 0 0 2.666z"/><path stroke-linejoin="round" stroke-linecap="round" stroke-width="2.4" d="M1.333 1.333h5.333l3.573 17.853a2.671 2.671 0 0 0 2.616 2.147l.054-.001h-.003H25.917a2.668 2.668 0 0 0 2.613-2.13l.003-.017 2.133-11.187H7.999"/></symbol><symbol id="icon-x" viewBox="0 0 32 32"><path stroke-linejoin="round" stroke-linecap="round" stroke-width="2" d="M24 8 8 24M8 8l16 16"/></symbol></defs></svg>