<!-- Generated by IcoMoon.io -->
<svg version="1.1" xmlns="http://www.w3.org/2000/svg" width="1024" height="1024" viewBox="0 0 1024 1024">
<title></title>
<g id="icomoon-ignore">
</g>
<path stroke-linejoin="round" stroke-linecap="round" stroke-miterlimit="4" stroke-width="85.3333" stroke="#000" fill="#000" d="M384 938.667c23.564 0 42.667-19.103 42.667-42.667s-19.103-42.667-42.667-42.667v0c-23.564 0-42.667 19.103-42.667 42.667s19.103 42.667 42.667 42.667v0zM853.333 938.667c23.564 0 42.667-19.103 42.667-42.667s-19.103-42.667-42.667-42.667v0c-23.564 0-42.667 19.103-42.667 42.667s19.103 42.667 42.667 42.667v0z"></path>
<path fill="none" stroke-linejoin="round" stroke-linecap="round" stroke-miterlimit="4" stroke-width="76.8" stroke="#000" d="M42.667 42.667h170.667l114.347 571.307c8.042 39.446 42.453 68.709 83.698 68.709 0.575 0 1.148-0.006 1.721-0.017l-0.086 0.001h414.72c0.487 0.010 1.060 0.016 1.635 0.016 41.246 0 75.657-29.263 83.605-68.159l0.094-0.55 68.267-357.973h-725.333"></path>
</svg>
