<svg width="15" height="8" viewBox="0 0 15 8" fill="none" xmlns="http://www.w3.org/2000/svg">
<path d="M6.78999 3.0999C6.88295 3.00617 6.99355 2.93178 7.11541 2.88101C7.23727 2.83024 7.36798 2.8041 7.49999 2.8041C7.632 2.8041 7.76271 2.83024 7.88457 2.88101C8.00643 2.93178 8.11703 3.00617 8.20999 3.0999L12.79 7.6899C12.883 7.78363 12.9936 7.85802 13.1154 7.90879C13.2373 7.95956 13.368 7.9857 13.5 7.9857C13.632 7.9857 13.7627 7.95956 13.8846 7.90879C14.0064 7.85802 14.117 7.78363 14.21 7.6899C14.3963 7.50254 14.5008 7.24908 14.5008 6.9849C14.5008 6.72071 14.3963 6.46726 14.21 6.2799L9.61999 1.6899C9.05749 1.1281 8.29499 0.812538 7.49999 0.812538C6.70499 0.812538 5.94249 1.1281 5.37999 1.6899L0.789979 6.2799C0.605235 6.46616 0.501082 6.71756 0.499978 6.9799C0.499217 7.11151 0.524442 7.24197 0.574206 7.36381C0.623971 7.48564 0.697298 7.59646 0.789979 7.6899C0.882942 7.78363 0.993543 7.85802 1.1154 7.90879C1.23726 7.95956 1.36797 7.9857 1.49998 7.9857C1.63199 7.9857 1.7627 7.95956 1.88456 7.90879C2.00642 7.85802 2.11702 7.78363 2.20998 7.6899L6.78999 3.0999Z" fill="black" fill-opacity="0.5"/>
</svg>
